HIERARCHY
ROOT root
{
	OFFSET 0.000000 0.000000 0.000000
	CHANNELS 6 Xposition Yposition Zposition Zrotation Yrotation Xrotation
	JOINT lhip
	{
		OFFSET 0.058581 -0.082280 -0.017664
		CHANNELS 3 Zrotation Yrotation Xrotation
		JOINT lknee
		{
			OFFSET 0.043451 -0.386469 0.008037
			CHANNELS 3 Zrotation Yrotation Xrotation
			JOINT lankle
			{
				OFFSET -0.014790 -0.426874 -0.037428
				CHANNELS 3 Zrotation Yrotation Xrotation
				JOINT ltoe
				{
					OFFSET 0.041054 -0.060286 0.122042
					CHANNELS 3 Zrotation Yrotation Xrotation
					End Site
					{
						OFFSET 0.000000 0.000000 0.000000
					}
				}
			}
		}
	}
	JOINT rhip
	{
		OFFSET -0.060310 -0.090513 -0.013543
		CHANNELS 3 Zrotation Yrotation Xrotation
		JOINT rknee
		{
			OFFSET -0.043257 -0.383688 -0.004843
			CHANNELS 3 Zrotation Yrotation Xrotation
			JOINT rankle
			{
				OFFSET 0.019056 -0.420046 -0.034562
				CHANNELS 3 Zrotation Yrotation Xrotation
				JOINT rtoe
				{
					OFFSET -0.034840 -0.062106 0.130323
					CHANNELS 3 Zrotation Yrotation Xrotation
					End Site
					{
						OFFSET 0.000000 0.000000 0.000000
					}
				}
			}
		}
	}
	JOINT lowerback
	{
		OFFSET 0.004439 0.124404 -0.038385
		CHANNELS 3 Zrotation Yrotation Xrotation
		JOINT upperback
		{
			OFFSET 0.004488 0.137956 0.026820
			CHANNELS 3 Zrotation Yrotation Xrotation
			JOINT chest
			{
				OFFSET -0.002265 0.056032 0.002855
				CHANNELS 3 Zrotation Yrotation Xrotation
				JOINT lowerneck
				{
					OFFSET -0.013390 0.211636 -0.033468
					CHANNELS 3 Zrotation Yrotation Xrotation
					JOINT upperneck
					{
						OFFSET 0.010113 0.088937 0.050410
						CHANNELS 3 Zrotation Yrotation Xrotation
						End Site
						{
							OFFSET 0.000000 0.000000 0.000000
						}
					}
				}
				JOINT lclavicle
				{
					OFFSET 0.071702 0.114000 -0.018898
					CHANNELS 3 Zrotation Yrotation Xrotation
					JOINT lshoulder
					{
						OFFSET 0.122921 0.045205 -0.019046
						CHANNELS 3 Zrotation Yrotation Xrotation
						JOINT lelbow
						{
							OFFSET 0.255332 -0.015649 -0.022946
							CHANNELS 3 Zrotation Yrotation Xrotation
							JOINT lwrist
							{
								OFFSET 0.265709 0.012698 -0.007375
								CHANNELS 3 Zrotation Yrotation Xrotation
								End Site
								{
									OFFSET 0.000000 0.000000 0.000000
								}
							}
						}
					}
				}
				JOINT rclavicle
				{
					OFFSET -0.082954 0.112472 -0.023707
					CHANNELS 3 Zrotation Yrotation Xrotation
					JOINT rshoulder
					{
						OFFSET -0.113228 0.046853 -0.008472
						CHANNELS 3 Zrotation Yrotation Xrotation
						JOINT relbow
						{
							OFFSET -0.260127 -0.014369 -0.031269
							CHANNELS 3 Zrotation Yrotation Xrotation
							JOINT rwrist
							{
								OFFSET -0.269108 0.006794 -0.006027
								CHANNELS 3 Zrotation Yrotation Xrotation
								End Site
								{
									OFFSET 0.000000 0.000000 0.000000
								}
							}
						}
					}
				}
			}
		}
	}
}
MOTION
Frames: 16
Frame Time: 0.033333
0.035084 0.366537 1.013520 179.206924 -1.105322 90.147979 4.728346 3.868140 4.616903 -3.657712 -0.463298 -1.776487 1.938100 11.227955 -12.908555 0.000000 -0.000000 0.000000 -4.917961 -4.124478 -0.271181 2.390096 -3.473701 4.909883 7.284997 -4.579752 -1.127515 0.000000 -0.000000 0.000000 -2.261044 0.707425 -1.425336 2.197367 -3.466224 5.960625 1.439080 -1.074490 -3.838600 -0.152522 3.232544 -1.755050 1.604291 -0.568608 -4.838304 -21.903754 -2.504609 1.801238 -63.271459 -6.005304 14.075449 7.640714 -26.620398 5.637258 -10.346804 -11.092198 3.091726 22.468368 8.486452 4.793380 59.732431 6.435620 15.052112 -7.698518 25.002063 2.414102 8.418860 10.032722 -0.824972 
0.034697 0.366936 1.013460 179.219020 -1.077689 90.183585 4.736265 3.844799 4.573289 -3.681729 -0.473629 -1.743929 1.980801 11.310195 -12.850426 0.000000 -0.000000 0.000000 -4.899770 -4.077075 -0.294238 2.357136 -3.457262 4.932645 7.434793 -4.675408 -1.125075 0.000000 -0.000000 0.000000 -2.187301 0.677720 -1.541280 2.146975 -3.456463 6.055663 1.428627 -1.015483 -3.875334 -0.185713 3.340420 -1.584132 1.518046 -0.273700 -4.621582 -21.914816 -2.450040 1.870362 -63.417687 -5.936655 13.946014 7.964155 -26.710021 5.221145 -10.214070 -11.096811 2.610420 22.506209 8.506044 4.825592 59.649161 6.413512 15.037384 -7.933702 24.946863 2.087342 8.306775 10.052039 -1.115893 
0.034321 0.367319 1.013370 179.146419 -1.059439 90.213276 4.755512 3.891396 4.521586 -3.727434 -0.474238 -1.616187 2.011847 11.310066 -12.945958 0.000000 -0.000000 0.000000 -4.907860 -4.046991 -0.314716 2.361072 -3.443472 4.935219 7.483207 -4.671929 -1.128821 0.000000 -0.000000 0.000000 -2.099521 0.670438 -1.596797 2.131700 -3.401812 5.952597 1.388333 -0.991507 -3.819305 -0.293485 3.574191 -1.275115 1.266548 0.074311 -4.042584 -21.897508 -2.296288 1.945511 -63.543524 -5.825495 13.962109 8.141198 -26.782627 5.192916 -10.324890 -10.781933 2.294800 22.486554 8.407139 4.897120 59.582216 6.539143 15.035223 -8.051373 24.851475 1.955037 8.430837 9.942788 -1.190247 
0.033770 0.368135 1.013171 179.139346 -1.094570 90.172502 4.702363 3.824197 4.645049 -3.778675 -0.488340 -1.680937 2.331385 11.328275 -12.950552 0.000000 -0.000000 0.000000 -4.985523 -4.074919 -0.267756 2.324425 -3.503803 5.024453 7.481601 -4.582529 -1.176398 0.000000 -0.000000 0.000000 -1.937287 0.580244 -1.380420 2.029902 -3.363814 5.396235 1.375330 -0.994660 -3.766722 -0.548530 4.502286 -0.596262 0.693026 1.451209 -2.593429 -22.046359 -1.986840 2.177926 -63.514485 -5.780166 13.755926 8.214831 -26.647960 5.266806 -9.903944 -11.088300 1.905203 22.438662 8.126867 5.122148 59.559072 6.745673 15.124357 -8.102728 24.700150 2.013288 8.322913 10.064090 -1.271736 
0.033505 0.368650 1.013031 179.121426 -1.081171 90.203901 4.697127 3.743117 4.622299 -3.774335 -0.407975 -1.654821 2.103519 11.455550 -12.950137 0.000000 -0.000000 0.000000 -5.018939 -4.074158 -0.300178 2.358104 -3.564688 5.104778 7.492731 -4.526897 -1.269737 0.000000 -0.000000 0.000000 -1.781825 0.544696 -1.499209 2.007624 -3.343694 5.296239 1.355898 -0.985188 -3.761372 -0.781323 5.587953 -0.155176 0.198515 2.721656 -1.179508 -21.976226 -1.788058 2.304562 -63.746679 -5.747860 13.746867 8.319513 -26.554151 5.268245 -9.332913 -11.428766 1.829599 22.399841 7.817603 5.282089 59.434782 6.931231 15.132504 -8.026378 24.729157 1.977662 8.259958 10.237191 -1.418923 
0.033081 0.369382 1.012871 179.012819 -1.068353 90.199432 4.688737 3.817189 4.690820 -3.798248 -0.369949 -1.670923 2.210954 11.479234 -12.904490 0.000000 -0.000000 0.000000 -5.046445 -4.109225 -0.308873 2.360097 -3.487264 5.158295 7.618376 -4.490171 -1.297259 0.000000 -0.000000 0.000000 -1.568094 0.496194 -1.644735 2.009363 -3.355571 4.982235 1.365428 -0.890042 -3.717900 -1.242549 7.766986 1.083538 -0.528378 5.236015 1.012355 -21.835905 -1.702569 2.586845 -64.000025 -5.547646 13.970740 8.187552 -26.077555 5.906050 -9.464126 -10.775998 1.193973 22.356775 7.435813 5.536741 59.329529 7.289327 15.321646 -8.044224 24.509706 2.010487 8.497364 10.016645 -1.495135 
0.032842 0.370363 1.012500 178.832698 -1.137707 90.126421 4.611799 3.819047 4.872601 -3.818999 -0.333366 -1.742068 2.275775 11.596390 -12.839889 0.000000 -0.000000 0.000000 -5.183018 -4.091275 -0.285671 2.344959 -3.492785 5.303441 7.778822 -4.258833 -1.374528 0.000000 -0.000000 0.000000 -1.295271 0.438448 -2.026806 1.917347 -3.348607 5.044510 1.268520 -0.864919 -3.698763 -1.713978 10.769301 2.874685 -1.184576 8.208853 2.717531 -21.827528 -1.576235 2.650440 -63.912234 -5.501055 14.048825 8.001868 -25.589662 6.061127 -9.100484 -11.216569 1.451893 22.358485 7.259956 5.774994 59.281048 7.725045 15.459104 -7.891750 23.964224 1.556287 8.256878 10.390135 -1.661608 
0.032735 0.371006 1.012230 178.733955 -1.197141 89.985826 4.550441 3.756570 5.013432 -3.847051 -0.288381 -1.575354 2.513030 11.630211 -12.927592 0.000000 -0.000000 0.000000 -5.308157 -4.110084 -0.144066 2.368527 -3.477965 5.386837 7.903739 -4.102356 -1.426805 0.000000 -0.000000 0.000000 -0.986022 0.452082 -2.309841 1.818671 -3.324250 4.963706 1.221459 -0.907912 -3.455123 -2.191048 13.979414 4.969476 -1.936964 11.385814 4.111445 -21.702405 -1.447428 2.820586 -63.943003 -5.474281 14.133220 7.901470 -25.549542 6.526193 -9.097328 -11.168720 1.286749 22.198595 6.831552 5.923362 59.400846 8.172134 15.584558 -7.853175 23.938479 1.205417 8.164584 10.383612 -2.108788 
0.032661 0.372315 1.011981 178.348161 -1.286757 89.925189 4.398645 3.906266 5.266034 -3.799510 -0.091056 -1.691552 2.534058 11.649453 -12.940471 0.000000 -0.000000 0.000000 -5.496884 -4.200812 -0.190394 2.368851 -3.486322 5.656183 8.130037 -3.625628 -1.484801 0.000000 -0.000000 0.000000 -0.671794 0.542009 -3.190373 1.728545 -3.201721 5.715221 1.024084 -0.806614 -3.400849 -2.467649 17.494978 7.200207 -2.751614 14.207125 5.133561 -21.455290 -1.248305 2.739200 -63.990591 -5.451902 14.145327 7.727240 -25.479740 6.467459 -8.896474 -11.141580 1.550404 22.363496 6.378476 6.218837 59.295323 8.726423 15.379462 -7.851495 23.879586 0.339185 8.002926 10.638186 -1.350399 
0.032780 0.373494 1.011913 178.230617 -1.442389 89.580324 4.240757 3.909919 5.729056 -3.799533 -0.129807 -1.558160 2.434295 11.820695 -13.143275 0.000000 -0.000000 0.000000 -5.708006 -3.941935 0.310980 2.352315 -3.715733 5.645041 8.325835 -3.446277 -1.579517 0.000000 -0.000000 0.000000 -0.360015 0.537624 -3.724422 1.552148 -3.034763 6.307437 0.839752 -0.514207 -3.163173 -2.695093 21.213100 10.131674 -3.434141 17.237635 6.264459 -21.060154 -1.115146 2.607148 -64.307489 -5.560896 13.943392 7.957653 -25.422664 6.139958 -9.284618 -11.141077 1.465761 22.191942 5.879434 6.651964 59.512314 9.264567 15.165036 -8.088000 24.095304 -0.197525 8.366863 10.674612 -1.137178 
0.033225 0.374192 1.012016 178.079729 -1.571521 89.311864 4.110014 3.959899 6.169978 -3.726462 -0.197491 -1.654948 2.440740 11.792530 -13.160564 0.000000 -0.000000 0.000000 -5.882138 -3.944890 0.624711 2.348810 -3.756125 5.745777 8.467574 -3.178716 -1.636121 0.000000 -0.000000 0.000000 -0.131272 0.670608 -4.078016 1.356970 -2.808695 6.837237 0.690139 -0.365488 -2.860244 -2.772584 23.436511 12.164379 -4.216145 19.196537 6.377463 -20.795655 -0.887996 2.603162 -64.501452 -5.641135 13.593154 8.390824 -26.102989 5.591141 -9.255699 -11.007254 1.338883 22.048645 5.500061 7.005283 59.821167 9.607800 14.877634 -8.365661 24.423764 -0.916443 8.442567 10.807712 -1.038099 
0.033729 0.374145 1.011722 178.125828 -1.696458 89.125325 4.000464 3.804660 6.362522 -3.726509 -0.201079 -1.670418 2.967806 11.663433 -13.097619 0.000000 -0.000000 0.000000 -6.052879 -3.909747 0.794986 2.384234 -3.964760 5.870576 8.510531 -2.992811 -1.723759 0.000000 -0.000000 0.000000 0.152665 0.830373 -4.193796 1.057139 -2.573585 6.992236 0.421638 -0.280501 -2.394356 -3.038572 25.119609 13.949526 -4.771488 20.163370 6.046040 -20.485834 -0.681744 2.645640 -64.767023 -5.936139 13.187726 9.179311 -26.534571 4.930090 -10.110761 -11.262446 0.938127 21.798178 5.348085 7.355296 60.294627 9.829028 14.708963 -8.799295 24.633978 -1.400503 9.015535 11.130989 -1.502803 
0.034536 0.373782 1.011641 178.244456 -1.731211 89.021379 4.032445 3.776530 6.321486 -3.738585 -0.325917 -1.315755 2.596476 11.756028 -13.272927 0.000000 -0.000000 0.000000 -6.054878 -3.888145 0.837995 2.404915 -4.098010 6.022251 8.500467 -2.979504 -1.864314 0.000000 -0.000000 0.000000 0.457591 0.925519 -4.326396 0.731065 -2.306745 7.425390 0.083258 0.005899 -2.175811 -3.044814 26.543772 14.481143 -4.616056 21.126470 6.635086 -20.392720 -0.720742 2.710097 -64.578537 -6.095477 12.790342 9.677660 -27.119632 4.410548 -10.547241 -11.316832 0.629024 21.813053 5.229410 7.806282 60.441374 9.834887 14.485046 -9.100589 25.234491 -1.591705 9.173968 11.142238 -1.898476 
0.035312 0.372737 1.011675 178.428505 -1.808997 88.799841 4.009472 3.616792 6.418607 -3.745472 -0.296684 -1.378282 2.601184 11.739275 -13.111341 0.000000 -0.000000 0.000000 -6.128572 -3.868206 0.931236 2.435990 -4.305900 6.264632 8.461030 -2.883596 -1.952192 0.000000 -0.000000 0.000000 0.608672 1.088951 -4.116147 0.433186 -2.021196 7.815177 -0.164519 0.232439 -1.905329 -3.049565 27.311359 15.029096 -4.819067 21.509431 6.552341 -20.397019 -0.734096 2.667541 -64.424425 -6.304478 12.335881 10.131550 -27.700629 3.484260 -10.422062 -11.211913 0.106508 21.755209 5.124732 8.188613 60.545100 9.826000 14.207879 -9.518878 26.189631 -1.990588 9.238358 11.199432 -1.823031 
0.036644 0.371531 1.012026 178.741477 -1.880968 88.619387 4.049391 3.479418 6.346628 -3.759846 -0.485282 -1.088776 2.550045 11.653860 -13.173407 0.000000 -0.000000 0.000000 -6.133412 -3.982235 0.983263 2.461592 -4.490763 6.469593 8.381357 -2.893129 -2.050912 0.000000 -0.000000 0.000000 0.647522 1.257479 -3.729729 0.135899 -1.790675 7.947729 -0.356749 0.358145 -1.614363 -3.152429 27.813327 15.322883 -4.933183 21.828210 6.399207 -20.327761 -0.605882 2.594275 -64.338701 -6.439133 11.844487 10.712455 -28.199932 2.488675 -9.616588 -11.210356 -0.460607 21.590683 4.958847 8.467297 60.761856 9.701783 14.009074 -9.687074 27.407935 -2.340405 8.637914 11.388192 -2.293652 
0.038229 0.369419 1.012377 179.150278 -1.959355 88.324119 4.131942 3.248736 6.225951 -3.818290 -0.698131 -0.668643 2.753931 11.538495 -13.079940 0.000000 -0.000000 0.000000 -6.103206 -3.977063 1.040447 2.427447 -4.718821 6.808316 8.308998 -2.923810 -2.185077 0.000000 -0.000000 0.000000 0.629428 1.389658 -2.804269 -0.199243 -1.583792 7.832384 -0.464607 0.425503 -1.271011 -3.388025 28.210684 15.214652 -4.961703 22.151711 6.204711 -20.230924 -0.579661 2.604176 -64.206151 -6.360362 11.172963 11.596335 -29.158217 1.363249 -9.486351 -11.170312 -1.392545 21.327900 4.977052 8.589546 60.858699 9.523550 13.877350 -9.990787 29.180524 -2.350073 8.549768 11.749512 -2.848510 
